<svg aria-hidden="true" style="position:absolute;width:0;height:0;overflow:hidden" xmlns="http://www.w3.org/2000/svg">
  <defs>
    <symbol id="icon-close-mob" viewBox="0 0 32 32">
      <path stroke-linejoin="round" stroke-linecap="round" stroke-width="3" d="M24 8 8 24M8 8l16 16"/>
    </symbol>

    <symbol id="icon-icon-close-big" viewBox="0 0 32 32">
<path stroke-linejoin="round" stroke-linecap="round" stroke-miterlimit="4" stroke-width="3.2" d="M24 8l-16 16"></path>
<path stroke-linejoin="round" stroke-linecap="round" stroke-miterlimit="4" stroke-width="3.2" d="M8 8l16 16"></path>
</symbol>

    <symbol id="icon-burger-big" viewBox="0 0 32 32">
      <path stroke-linejoin="round" stroke-linecap="round" stroke-width="3.2" d="M5.333 8h21.333M5.333 16H16M5.333 24h21.333"/>
    </symbol>

    <symbol id="icon-icon-burger-big" viewBox="0 0 42 32">
<path stroke-linejoin="round" stroke-linecap="round" stroke-miterlimit="4" stroke-width="4.8" d="M3.733 3.2h34.133M3.733 16h17.067M3.733 28.8h34.133"></path>
</symbol>

    <symbol id="icon-logo-text-mob" viewBox="0 0 395 32">
      <path d="M16.803 32C6.702 32 0 25.728 0 15.957 0 6.4 6.606 0 16.563 0 24.94 0 30.828 4.395 31.69 11.008h-6.941c-.67-3.797-3.878-5.931-8.186-5.931-6.032 0-9.622 4.352-9.622 10.88 0 7.168 4.021 10.965 9.861 10.965 5.074 0 8.329-2.56 8.665-6.4v-.427h-9.335v-4.779h15.797v3.925c-.287 7.637-6.319 12.757-15.127 12.757zM36.115 31.573V.426h16.802c8.569 0 11.968 3.712 11.968 9.088 0 4.821-3.83 7.125-8.282 7.68v.128c2.872.64 4.165 2.048 5.362 4.821 1.532 3.499 1.771 7.68 3.734 9.173v.256H58.04c-1.627-1.451-2.01-6.016-2.872-8.789-.862-2.859-2.729-3.2-6.223-3.2h-6.127v11.989h-6.702zm6.702-16.938H52.2c3.925 0 5.744-2.048 5.744-4.693 0-2.901-2.25-4.565-5.744-4.565h-9.383v9.259zM69.336 31.573V.426h23.887v4.949H76.037v7.424h15.51v4.949h-15.51v8.747h17.425v5.077H69.335zM98.116 31.573V.426h23.887v4.949h-17.186v7.424h15.51v4.949h-15.51v8.747h17.425v5.077H98.115zM126.897 31.573V.426h8.138l11.585 17.195c3.542 5.205 3.973 6.912 3.973 6.912h.143L150.64.426h6.702v31.147h-8.186l-12.015-17.707c-2.729-4.011-3.447-6.443-3.447-6.443h-.096v24.149h-6.702zM162.384 31.573v-6.315h6.989v6.315h-6.989zM174.406 31.573V.426h6.702v12.459h16.037V.426h6.702v31.147h-6.702V17.834h-16.037v13.739h-6.702zM206.711 31.573 220.115.426h7.276l13.595 31.147h-7.181l-2.824-7.168h-14.505l-2.824 7.168h-6.941zm11.68-12.117h10.675l-3.111-7.68c-2.154-5.675-2.202-6.699-2.202-6.699h-.096s0 1.024-2.154 6.699l-3.111 7.68zM243.841 31.573V.426h16.803c8.57 0 11.967 3.712 11.967 9.088 0 4.821-3.829 7.125-8.281 7.68v.128c2.873.64 4.164 2.048 5.361 4.821 1.533 3.499 1.771 7.68 3.733 9.173v.256h-7.658c-1.627-1.451-2.011-6.016-2.872-8.789-.862-2.859-2.729-3.2-6.223-3.2h-6.127v11.989h-6.702zm6.702-16.938h9.382c3.926 0 5.745-2.048 5.745-4.693 0-2.901-2.25-4.565-5.745-4.565h-9.382v9.259zM284.168 31.573 271.339.426h7.181s6.941 17.451 7.659 19.584c1.149 3.413 1.675 5.163 1.675 5.163h.096c-.048 0 .48-1.749 1.675-5.163.768-2.133 7.421-19.584 7.421-19.584h6.941l-12.352 31.147h-7.467zM306.731 31.573V.426h23.888v4.949h-17.187v7.424h15.512v4.949h-15.512v8.747h17.427v5.077h-24.128zM347.496 32c-8.904 0-14.267-4.309-14.267-10.709h7.661c-.096 3.627 2.584 5.632 6.605 5.632 4.261 0 6.269-1.493 6.269-3.712s-1.723-3.157-7.851-4.651c-5.6-1.365-11.728-2.987-11.728-9.387 0-5.077 4.979-9.173 12.829-9.173 8.091 0 13.261 4.053 13.261 9.771h-7.421c-.048-3.029-2.344-4.693-5.84-4.693-3.397 0-5.648 1.536-5.648 3.584 0 2.432 1.867 3.2 6.749 4.437 7.229 1.792 13.069 2.517 13.069 9.472 0 5.589-5.696 9.429-13.691 9.429zM372.099 31.573V5.504H361.52V.427h27.813v5.077h-10.531v26.069h-6.704z"/>
    </symbol>
    <symbol id="icon-logo-mob" viewBox="0 0 32 32">
      <path d="M29.082.314h-4.009c-1.237 0-2.24.983-2.24 2.195v3.929c0 1.212 1.003 2.195 2.24 2.195h4.009c1.237 0 2.24-.983 2.24-2.195V2.509c0-1.212-1.003-2.195-2.24-2.195zM6.73 23.04H2.412C1.08 23.04 0 24.023 0 25.235v3.929c0 1.213 1.08 2.195 2.412 2.195H6.73c1.332 0 2.412-.983 2.412-2.195v-3.929c0-1.212-1.08-2.195-2.412-2.195zM6.25 11.582H2.241c-1.237 0-2.24.983-2.24 2.195v3.929c0 1.212 1.003 2.195 2.24 2.195H6.25c1.237 0 2.24-.983 2.24-2.195v-3.929c0-1.212-1.003-2.195-2.24-2.195zM17.766 22.978h-4.009c-1.237 0-2.24.983-2.24 2.195v3.929c0 1.212 1.003 2.195 2.241 2.195h4.009c1.237 0 2.24-.983 2.24-2.195v-3.929c0-1.213-1.003-2.195-2.24-2.195zM6.25.086H2.241c-1.237 0-2.24.983-2.24 2.195V6.21c0 1.212 1.003 2.195 2.24 2.195H6.25c1.237 0 2.24-.983 2.24-2.195V2.281C8.49 1.069 7.487.086 6.25.086zM18.076 11.697h-4.009c-1.237 0-2.24.983-2.24 2.195v3.929c0 1.212 1.003 2.195 2.24 2.195h4.009c1.237 0 2.24-.983 2.24-2.195v-3.929c0-1.212-1.003-2.195-2.24-2.195zM29.333 22.978h-4.01c-1.237 0-2.24.983-2.24 2.195v3.929c0 1.212 1.003 2.195 2.24 2.195h4.009c1.237 0 2.24-.983 2.24-2.195v-3.929c0-1.213-1.003-2.195-2.24-2.195zM17.591.224h-4.009c-1.237 0-2.24.983-2.24 2.195v3.929c0 1.212 1.003 2.195 2.24 2.195h4.009c1.237 0 2.24-.984 2.24-2.196V2.418c0-1.212-1.003-2.195-2.24-2.195zM29.044 11.926h-4.01c-1.237 0-2.24.983-2.24 2.195v3.929c0 1.212 1.003 2.195 2.24 2.195h4.009c1.237 0 2.24-.983 2.24-2.195v-3.929c0-1.212-1.003-2.195-2.24-2.195z"/>
    </symbol>
    <symbol id="icon-logo-text-desktop" viewBox="0 0 358 32">
      <path d="M15.468 32C6.17 32 0 25.728 0 15.957 0 6.4 6.081 0 15.247 0c7.712 0 13.132 4.395 13.925 11.008h-6.39c-.617-3.797-3.569-5.931-7.535-5.931-5.552 0-8.857 4.352-8.857 10.88 0 7.168 3.702 10.965 9.078 10.965 4.671 0 7.668-2.56 7.976-6.4v-.427h-8.593v-4.779h14.542v3.925c-.265 7.637-5.817 12.757-13.925 12.757zM33.245 31.573V.426h15.468c7.888 0 11.017 3.712 11.017 9.088 0 4.821-3.525 7.125-7.623 7.68v.128c2.644.64 3.834 2.048 4.935 4.821 1.41 3.499 1.63 7.68 3.437 9.173v.256h-7.051c-1.498-1.451-1.851-6.016-2.644-8.789-.793-2.859-2.512-3.2-5.729-3.2h-5.641v11.989h-6.169zm6.17-16.938h8.637c3.613 0 5.288-2.048 5.288-4.693 0-2.901-2.071-4.565-5.288-4.565h-8.637v9.259zM63.827 31.573V.426h21.989v4.949h-15.82v7.424h14.278v4.949H69.996v8.747h16.04v5.077h-22.21zM90.321 31.573V.426h21.99v4.949h-15.82v7.424h14.278v4.949H96.491v8.747h16.04v5.077h-22.21zM116.814 31.573V.426h7.491l10.664 17.195c3.261 5.205 3.658 6.912 3.658 6.912h.132L138.671.426h6.17v31.147h-7.536l-11.061-17.707c-2.512-4.011-3.173-6.443-3.173-6.443h-.088v24.149h-6.169zM149.482 31.573v-6.315h6.434v6.315h-6.434zM160.549 31.573V.426h6.169v12.459h14.762V.426h6.169v31.147h-6.169V17.834h-14.762v13.739h-6.169zM190.287 31.573 202.626.426h6.698l12.515 31.147h-6.609l-2.601-7.168h-13.352l-2.6 7.168h-6.39zm10.753-12.117h9.827l-2.864-7.68c-1.983-5.675-2.027-6.699-2.027-6.699h-.088s0 1.024-1.983 6.699l-2.864 7.68zM224.467 31.573V.426h15.467c7.889 0 11.019 3.712 11.019 9.088 0 4.821-3.526 7.125-7.625 7.68v.128c2.643.64 3.834 2.048 4.937 4.821 1.41 3.499 1.63 7.68 3.437 9.173v.256h-7.051c-1.5-1.451-1.852-6.016-2.645-8.789-.794-2.859-2.511-3.2-5.728-3.2h-5.641v11.989h-6.17zm6.17-16.938h8.638c3.612 0 5.286-2.048 5.286-4.693 0-2.901-2.069-4.565-5.286-4.565h-8.638v9.259zM261.589 31.573 249.779.426h6.611s6.389 17.451 7.051 19.584c1.058 3.413 1.542 5.163 1.542 5.163h.087c-.043 0 .442-1.749 1.542-5.163.706-2.133 6.831-19.584 6.831-19.584h6.389l-11.369 31.147h-6.876zM282.359 31.573V.426h21.99v4.949h-15.821v7.424h14.278v4.949h-14.278v8.747h16.041v5.077h-22.21zM319.887 32c-8.196 0-13.133-4.309-13.133-10.709h7.051c-.087 3.627 2.381 5.632 6.082 5.632 3.921 0 5.773-1.493 5.773-3.712s-1.587-3.157-7.228-4.651c-5.156-1.365-10.797-2.987-10.797-9.387 0-5.077 4.585-9.173 11.81-9.173 7.447 0 12.207 4.053 12.207 9.771h-6.831c-.043-3.029-2.159-4.693-5.376-4.693-3.127 0-5.199 1.536-5.199 3.584 0 2.432 1.717 3.2 6.212 4.437 6.654 1.792 12.03 2.517 12.03 9.472 0 5.589-5.244 9.429-12.602 9.429zM342.537 31.573V5.504h-9.739V.427H358.4v5.077h-9.694v26.069h-6.17z"/>
    </symbol>
    <symbol id="icon-logo-desktop" viewBox="0 0 32 32">
      <path d="M29.082.314h-4.009c-1.237 0-2.24.983-2.24 2.195v3.929c0 1.212 1.003 2.195 2.24 2.195h4.009c1.237 0 2.24-.983 2.24-2.195V2.509c0-1.212-1.003-2.195-2.24-2.195zM6.73 23.04H2.412C1.08 23.04 0 24.023 0 25.235v3.929c0 1.212 1.08 2.195 2.412 2.195H6.73c1.332 0 2.412-.983 2.412-2.195v-3.929c0-1.212-1.08-2.195-2.412-2.195zM6.25 11.582H2.241c-1.237 0-2.24.983-2.24 2.195v3.929c0 1.212 1.003 2.195 2.24 2.195H6.25c1.237 0 2.24-.983 2.24-2.195v-3.929c0-1.212-1.003-2.195-2.24-2.195zM17.766 22.978h-4.009c-1.237 0-2.24.983-2.24 2.195v3.929c0 1.212 1.003 2.195 2.241 2.195h4.009c1.237 0 2.24-.983 2.24-2.195v-3.929c0-1.212-1.003-2.195-2.24-2.195zM6.25.086H2.241c-1.237 0-2.24.983-2.24 2.195V6.21c0 1.212 1.003 2.195 2.24 2.195H6.25c1.237 0 2.24-.983 2.24-2.195V2.281C8.49 1.069 7.487.086 6.25.086zM18.076 11.697h-4.009c-1.237 0-2.24.983-2.24 2.195v3.929c0 1.212 1.003 2.195 2.24 2.195h4.009c1.237 0 2.24-.983 2.24-2.195v-3.929c0-1.212-1.003-2.195-2.24-2.195zM29.333 22.978h-4.009c-1.237 0-2.24.983-2.24 2.195v3.929c0 1.212 1.003 2.195 2.24 2.195h4.009c1.237 0 2.24-.983 2.24-2.195v-3.929c0-1.212-1.003-2.195-2.24-2.195zM17.591.224h-4.009c-1.237 0-2.24.983-2.24 2.195v3.929c0 1.212 1.003 2.195 2.24 2.195h4.009c1.237 0 2.24-.984 2.24-2.196V2.418c0-1.212-1.003-2.195-2.24-2.195zM29.044 11.926h-4.009c-1.237 0-2.24.983-2.24 2.195v3.929c0 1.212 1.003 2.195 2.24 2.195h4.009c1.237 0 2.24-.983 2.24-2.195v-3.929c0-1.212-1.003-2.195-2.24-2.195z"/>
    </symbol>
  </defs>
</svg>
