<svg aria-hidden="true" style="position:absolute;width:0;height:0;overflow:hidden" xmlns="http://www.w3.org/2000/svg">
  <defs>
    <symbol id="icon-burger-big" viewBox="0 0 32 32">
      <path stroke-linejoin="round" stroke-linecap="round" stroke-width="3.2" d="M5.333 8h21.333M5.333 16H16M5.333 24h21.333"/>
    </symbol>
    <symbol id="icon-close-tab" viewBox="0 0 32 32">
      <path stroke-linejoin="round" stroke-linecap="round" stroke-width="3.2" d="M24 8 8 24M8 8l16 16"/>
    </symbol>
    <symbol id="icon-burger-small" viewBox="0 0 32 32">
      <path stroke-linejoin="round" stroke-linecap="round" stroke-width="3" d="M5.333 8h21.333M5.333 16H16M5.333 24h21.333"/>
    </symbol>
    <symbol id="icon-close-mob" viewBox="0 0 21 32">
      <path stroke-linejoin="round" stroke-linecap="round" stroke-width="2" d="M16 5.333 5.333 16M5.333 16 16 26.667"/>
    </symbol>
  <symbol id="icon-solid_menu" viewBox="0 0 32 32">
<path d="M4.799 8.001c0-0.884 0.716-1.6 1.6-1.6h19.2c0 0 0 0 0 0 0.442 0 0.842 0.179 1.131 0.469v0c0.3 0.3 0.469 0.707 0.469 1.131s-0.169 0.831-0.469 1.131c-0.29 0.29-0.689 0.469-1.131 0.469-0 0-0 0-0 0h-19.2c-0.884 0-1.6-0.716-1.6-1.6v0zM4.799 16.001c0-0 0-0 0-0 0-0.442 0.179-0.842 0.469-1.131v0c0.29-0.29 0.689-0.469 1.131-0.469 0 0 0 0 0 0h19.2c0 0 0 0 0 0 0.442 0 0.842 0.179 1.131 0.469v0c0.29 0.289 0.469 0.689 0.469 1.131 0 0 0 0 0 0v0c0 0 0 0 0 0 0 0.442-0.179 0.842-0.469 1.131v0c-0.289 0.29-0.689 0.469-1.131 0.469-0 0-0 0-0 0h-19.2c-0 0-0 0-0 0-0.884 0-1.6-0.716-1.6-1.6 0-0 0-0 0-0v0zM4.799 24.001c0-0 0-0 0-0 0-0.442 0.179-0.842 0.469-1.131v0c0.29-0.29 0.689-0.469 1.131-0.469 0 0 0 0 0 0h19.2c0 0 0 0 0 0 0.442 0 0.842 0.179 1.131 0.469v0c0.29 0.289 0.469 0.689 0.469 1.131 0 0 0 0 0 0v0c0 0 0 0 0 0 0 0.442-0.179 0.842-0.469 1.131v0c-0.289 0.29-0.689 0.469-1.131 0.469-0 0-0 0-0 0h-19.2c-0 0-0 0-0 0-0.884 0-1.6-0.716-1.6-1.6 0-0 0-0 0-0v0z"></path>
</symbol>

<symbol id="icon-vector" viewBox="0 0 42 32">
<path stroke-linejoin="round" stroke-linecap="round" stroke-miterlimit="4" stroke-width="4.8" d="M3.733 3.2h34.133M3.733 16h17.067M3.733 28.8h34.133"></path>
</symbol>

    <symbol id="icon-close-black1" viewBox="0 0 32 32">
      <path d="M32 3.223 28.777 0 16 12.777 3.223 0 0 3.223 12.777 16 0 28.777 3.223 32 16 19.223 28.777 32 32 28.777 19.223 16 32 3.223z"/>
    </symbol>

  </defs>
</svg>
