<svg aria-hidden="true" style="position: absolute; width: 16; height: 16; overflow: hidden;" version="1.1" xmlns="http://www.w3.org/2000/svg" xmlns:xlink="http://www.w3.org/1999/xlink">
<path fill="#8dc449" style="fill: var(--color1, #8dc449)" opacity="0.902" d="M7.667 3.667c-2.24 4.855-3.129 9.966-2.667 15.333-2.127-1.231-3.238-3.12-3.333-5.667 0.256-4.417 2.256-7.64 6-9.667z"></path>
<path fill="#6ba139" style="fill: var(--color2, #6ba139)" opacity="0.98" d="M7.667 3.667c3.54 2.65 4.873 6.205 4 10.667-0.627 1.515-1.516 2.848-2.667 4-0.412 0.074-0.745 0.296-1 0.667-0.33 1.315-0.441 2.648-0.333 4-1.724-0.658-2.613-1.991-2.667-4-0.462-5.367 0.427-10.478 2.667-15.333z"></path>
<path fill="#8ac249" style="fill: var(--color3, #8ac249)" opacity="0.942" d="M29 19c-3.981-0.649-7.981-0.76-12-0.333-2.903 1.231-5.792 2.453-8.667 3.667 0.222-1.333 0.444-2.667 0.667-4 1.15-1.152 2.039-2.485 2.667-4 5.113-1.278 10.002-0.723 14.667 1.667 1.028 0.914 1.916 1.914 2.667 3z"></path>
<path fill="#69a038" style="fill: var(--color4, #69a038)" opacity="0.979" d="M29 19c-4.615 7.977-11.059 9.977-19.333 6-1.089 1.335-2.422 2.224-4 2.667 0.125-1.804 0.792-3.36 2-4.667 0.444 0 0.667-0.222 0.667-0.667 2.875-1.214 5.764-2.436 8.667-3.667 4.019-0.427 8.019-0.316 12 0.333z"></path>

</svg>